<svg width="29" height="30" viewBox="0 0 29 30" fill="none" xmlns="http://www.w3.org/2000/svg">
<path d="M14.0989 0.900879C6.31342 0.900879 0 7.2143 0 14.9998C0 22.7876 6.31342 29.0987 14.0989 29.0987C21.8867 29.0987 28.1978 22.7853 28.1978 14.9998C28.1978 7.2143 21.8867 0.900879 14.0989 0.900879ZM24.071 15.3887C22.011 16.6415 22.4249 19.9361 21.6334 21.8921C21.3553 22.5795 20.8646 23.1629 20.0731 22.8418C18.9335 22.376 18.9222 21.329 18.696 20.2821C18.4315 19.0429 18.0968 17.8173 17.6943 16.6143C17.5699 16.2412 17.4343 15.8613 17.1787 15.5628C16.9232 15.2644 16.5185 15.0609 16.134 15.1513C15.718 15.2485 15.4489 15.6465 15.2725 16.0354C14.6823 17.3244 14.7682 23.579 12.3691 22.8441C11.7246 22.6474 11.2904 22.0413 11.0259 21.4218C10.2842 19.6874 10.4379 17.5166 9.13094 16.1576C8.49553 15.495 7.59329 15.14 6.68427 15.0043C5.45188 14.8189 4.19463 14.9908 2.95094 15.0111C3.38284 14.9433 3.78308 14.8189 4.12227 14.6131C6.18227 13.3604 5.77072 10.068 6.5599 8.10976C6.83803 7.42233 7.32872 6.83893 8.12016 7.16003C9.25983 7.62585 9.27114 8.67281 9.49727 9.71977C9.76183 10.9589 10.0988 12.1845 10.499 13.3898C10.6234 13.7629 10.759 14.1428 11.0146 14.4413C11.2701 14.7398 11.6749 14.9433 12.0593 14.8528C12.4753 14.7556 12.7444 14.3576 12.9208 13.9687C13.511 12.6797 13.4251 6.42512 15.8243 7.16003C16.4687 7.35676 16.9029 7.96277 17.1674 8.58236C17.9091 10.3167 17.7554 12.4875 19.0624 13.8466C19.6978 14.5068 20.6 14.8641 21.509 14.9998C22.7414 15.1852 24.0009 15.0134 25.2424 14.993C24.8105 15.0631 24.4102 15.1852 24.071 15.3933V15.3887Z" fill="#F8F3E5"/>
</svg>
